STARTFONT 2.1
COMMENT  
COMMENT  WARNING:  This bdf file was generated from an X server using
COMMENT  xbdfdump.  The resulting font is subject to the same copyright,
COMMENT  license, and trademark restrictions as the original font.  The
COMMENT  author and distributors of xbdfdump disclaim all liability for
COMMENT  misuse of the program or its output.
COMMENT  
FONT -phaisarn-angsana-bold-r-normal--16-160-75-75-p-75-tis620-0
SIZE 16 75 75
FONTBOUNDINGBOX 37 46 -12 -14
STARTPROPERTIES 27
FOUNDRY "Phaisarn"
FAMILY_NAME "Angsana"
WEIGHT_NAME "bold"
SLANT "r"
SETWIDTH_NAME "normal"
ADD_STYLE_NAME ""
PIXEL_SIZE 16
POINT_SIZE 160
RESOLUTION_X 75
RESOLUTION_Y 75
SPACING "p"
AVERAGE_WIDTH 75
CHARSET_REGISTRY "tis620"
CHARSET_ENCODING "0"
COPYRIGHT "Angsana by Pt-TITech 1997"
RAW_PIXELSIZE 1000
RAW_POINTSIZE 0
RAW_ASCENT 0
RAW_DESCENT 0
RAW_AVERAGE_WIDTH 2994
FACE_NAME "Angsana Bold"
WEIGHT 10
X_HEIGHT 10
QUAD_WIDTH 13
FONT_ASCENT 30
FONT_DESCENT 10
_XMBDFED_INFO "Edited with xmbdfed 4.5."
ENDPROPERTIES
CHARS 195
STARTCHAR space
ENCODING 32
SWIDTH 300 0
DWIDTH 5 0
BBX 0 0 0 0
BITMAP
ENDCHAR
STARTCHAR exclam
ENCODING 33
SWIDTH 420 0
DWIDTH 7 0
BBX 3 14 2 0
BITMAP
E0
E0
E0
E0
E0
C0
40
40
40
40
00
E0
E0
E0
ENDCHAR
STARTCHAR quotedbl
ENCODING 34
SWIDTH 720 0
DWIDTH 12 0
BBX 8 7 2 7
BITMAP
E7
E7
E7
E7
42
42
42
ENDCHAR
STARTCHAR numbersign
ENCODING 35
SWIDTH 600 0
DWIDTH 10 0
BBX 10 14 0 0
BITMAP
1880
1880
1180
1180
FFC0
FFC0
3100
2300
FFC0
FFC0
6200
6200
4600
4600
ENDCHAR
STARTCHAR dollar
ENCODING 36
SWIDTH 600 0
DWIDTH 10 0
BBX 9 15 1 -1
BITMAP
1C00
6B00
4900
C880
E800
F800
7E00
1F00
0F00
0B80
8980
8980
C900
7E00
0800
ENDCHAR
STARTCHAR percent
ENCODING 37
SWIDTH 1260 0
DWIDTH 21 0
BBX 19 15 1 -1
BITMAP
3C0600
660C00
E70800
E71800
E71000
E73000
666000
184300
00CCC0
019CE0
011CE0
031CE0
021CE0
060CC0
0C0780
ENDCHAR
STARTCHAR ampersand
ENCODING 38
SWIDTH 1020 0
DWIDTH 17 0
BBX 15 14 1 0
BITMAP
0380
06E0
0C60
0C60
0EC0
0F00
0F1E
3788
63C8
E3D0
F1E0
F0F2
7FFE
3E1C
ENDCHAR
STARTCHAR apostrophe
ENCODING 39
SWIDTH 360 0
DWIDTH 6 0
BBX 3 7 1 7
BITMAP
E0
E0
E0
E0
40
40
40
ENDCHAR
STARTCHAR parenleft
ENCODING 40
SWIDTH 420 0
DWIDTH 7 0
BBX 6 18 1 -4
BITMAP
04
08
10
30
60
60
E0
E0
E0
E0
E0
E0
60
60
30
10
08
04
ENDCHAR
STARTCHAR parenright
ENCODING 41
SWIDTH 420 0
DWIDTH 7 0
BBX 6 18 0 -4
BITMAP
80
40
20
30
18
18
1C
1C
1C
1C
1C
1C
18
18
30
20
40
80
ENDCHAR
STARTCHAR asterisk
ENCODING 42
SWIDTH 600 0
DWIDTH 10 0
BBX 8 8 1 6
BITMAP
18
18
CB
FF
08
18
66
66
ENDCHAR
STARTCHAR plus
ENCODING 43
SWIDTH 720 0
DWIDTH 12 0
BBX 11 12 0 1
BITMAP
0400
0400
0400
0400
0400
0400
FFE0
0400
0400
0400
0400
0400
ENDCHAR
STARTCHAR comma
ENCODING 44
SWIDTH 300 0
DWIDTH 5 0
BBX 4 7 1 -4
BITMAP
60
F0
F0
10
10
20
C0
ENDCHAR
STARTCHAR minus
ENCODING 45
SWIDTH 420 0
DWIDTH 7 0
BBX 6 2 1 4
BITMAP
FC
FC
ENDCHAR
STARTCHAR period
ENCODING 46
SWIDTH 300 0
DWIDTH 5 0
BBX 3 3 1 0
BITMAP
E0
E0
E0
ENDCHAR
STARTCHAR slash
ENCODING 47
SWIDTH 360 0
DWIDTH 6 0
BBX 6 14 0 0
BITMAP
0C
08
08
08
10
10
10
20
20
20
60
40
40
C0
ENDCHAR
STARTCHAR 0
ENCODING 48
SWIDTH 600 0
DWIDTH 10 0
BBX 9 14 1 0
BITMAP
1C00
3600
6300
6300
E380
E380
E380
E380
E380
E380
6300
6300
3600
1C00
ENDCHAR
STARTCHAR 1
ENCODING 49
SWIDTH 600 0
DWIDTH 10 0
BBX 8 14 1 0
BITMAP
0C
7C
9C
1C
1C
1C
1C
1C
1C
1C
1C
1C
1C
FF
ENDCHAR
STARTCHAR 2
ENCODING 50
SWIDTH 600 0
DWIDTH 10 0
BBX 10 14 0 0
BITMAP
1E00
7F00
4780
C380
0380
0300
0700
0600
0C00
0800
1040
3F80
7F80
FF80
ENDCHAR
STARTCHAR 3
ENCODING 51
SWIDTH 600 0
DWIDTH 10 0
BBX 9 14 0 0
BITMAP
0E00
3F00
4700
0300
0300
0600
1F00
0780
0380
0180
0180
4100
F300
7C00
ENDCHAR
STARTCHAR 4
ENCODING 52
SWIDTH 600 0
DWIDTH 10 0
BBX 9 14 0 0
BITMAP
0300
0300
0700
0F00
1700
1700
2700
4700
8700
FF80
FF80
0700
0700
0700
ENDCHAR
STARTCHAR 5
ENCODING 53
SWIDTH 600 0
DWIDTH 10 0
BBX 9 14 1 0
BITMAP
3F80
3F00
3F00
4000
6000
7C00
FF00
1F80
0380
0180
0180
4100
F200
7C00
ENDCHAR
STARTCHAR 6
ENCODING 54
SWIDTH 600 0
DWIDTH 10 0
BBX 9 14 1 0
BITMAP
0380
0C00
3800
3000
7000
7E00
E700
E780
E380
E380
E380
7300
3300
1C00
ENDCHAR
STARTCHAR 7
ENCODING 55
SWIDTH 600 0
DWIDTH 10 0
BBX 9 14 1 0
BITMAP
7F80
7F80
FF00
8300
8300
0200
0600
0600
0400
0C00
0C00
0800
1800
1800
ENDCHAR
STARTCHAR 8
ENCODING 56
SWIDTH 600 0
DWIDTH 10 0
BBX 9 14 1 0
BITMAP
1E00
6300
E180
E180
F380
7B00
3E00
3F00
6780
E780
E380
E300
6300
3E00
ENDCHAR
STARTCHAR 9
ENCODING 57
SWIDTH 600 0
DWIDTH 10 0
BBX 9 14 1 0
BITMAP
1C00
6600
6300
E380
E380
E380
F380
7380
3F00
0700
0600
0E00
1800
E000
ENDCHAR
STARTCHAR colon
ENCODING 58
SWIDTH 420 0
DWIDTH 7 0
BBX 3 10 2 0
BITMAP
E0
E0
E0
00
00
00
00
E0
E0
E0
ENDCHAR
STARTCHAR semicolon
ENCODING 59
SWIDTH 420 0
DWIDTH 7 0
BBX 3 14 2 -4
BITMAP
E0
E0
E0
00
00
00
00
C0
E0
E0
20
20
40
80
ENDCHAR
STARTCHAR less
ENCODING 60
SWIDTH 720 0
DWIDTH 12 0
BBX 11 10 0 2
BITMAP
0020
01E0
0700
1C00
F000
F000
1C00
0700
01E0
0020
ENDCHAR
STARTCHAR equal
ENCODING 61
SWIDTH 720 0
DWIDTH 12 0
BBX 11 4 0 5
BITMAP
FFE0
0000
0000
FFE0
ENDCHAR
STARTCHAR greater
ENCODING 62
SWIDTH 720 0
DWIDTH 12 0
BBX 11 10 0 2
BITMAP
8000
F000
1C00
0700
01E0
01E0
0700
1C00
F000
8000
ENDCHAR
STARTCHAR question
ENCODING 63
SWIDTH 600 0
DWIDTH 10 0
BBX 8 14 1 0
BITMAP
3C
4E
C7
E7
47
06
0C
08
08
08
00
18
38
18
ENDCHAR
STARTCHAR at
ENCODING 64
SWIDTH 1200 0
DWIDTH 20 0
BBX 18 19 1 -5
BITMAP
01F000
070C00
180200
200100
60D880
41B880
433880
833080
873080
873080
8E7100
8E6100
8EE200
473840
400080
200100
100600
0E1800
01E000
ENDCHAR
STARTCHAR A
ENCODING 65
SWIDTH 900 0
DWIDTH 15 0
BBX 15 14 0 0
BITMAP
0100
0100
0380
0380
07C0
05C0
05E0
08E0
08F0
1FF0
1078
2078
603C
F8FE
ENDCHAR
STARTCHAR B
ENCODING 66
SWIDTH 840 0
DWIDTH 14 0
BBX 13 14 0 0
BITMAP
FFC0
3870
3838
3838
3830
3870
3FC0
3870
3838
3878
3878
3830
3870
FFC0
ENDCHAR
STARTCHAR C
ENCODING 67
SWIDTH 900 0
DWIDTH 15 0
BBX 13 14 1 0
BITMAP
07C8
1E38
3818
7808
7008
F000
F000
F000
F000
F000
7800
3808
1E30
03C0
ENDCHAR
STARTCHAR D
ENCODING 68
SWIDTH 900 0
DWIDTH 15 0
BBX 14 14 0 0
BITMAP
FF00
3BC0
3870
3878
3878
383C
383C
383C
383C
383C
3878
3870
38E0
FF00
ENDCHAR
STARTCHAR E
ENCODING 69
SWIDTH 840 0
DWIDTH 14 0
BBX 14 14 0 0
BITMAP
FFF0
3830
3810
3890
3880
3880
3F80
3980
3880
3884
3808
3808
3878
FFF0
ENDCHAR
STARTCHAR F
ENCODING 70
SWIDTH 780 0
DWIDTH 13 0
BBX 12 14 0 0
BITMAP
FFF0
3870
3810
3810
3880
3880
3980
3F80
3980
3880
3840
3800
3800
FE00
ENDCHAR
STARTCHAR G
ENCODING 71
SWIDTH 960 0
DWIDTH 16 0
BBX 15 14 1 0
BITMAP
07C8
1C38
3818
7808
7008
F000
F000
F000
F0FE
7038
7038
3838
1C38
07E0
ENDCHAR
STARTCHAR H
ENCODING 72
SWIDTH 960 0
DWIDTH 16 0
BBX 16 14 0 0
BITMAP
FE7F
381C
381C
381C
381C
381C
3FFC
381C
381C
381C
381C
381C
381C
FE7F
ENDCHAR
STARTCHAR I
ENCODING 73
SWIDTH 480 0
DWIDTH 8 0
BBX 7 14 0 0
BITMAP
FE
38
38
38
38
38
38
38
38
38
38
38
38
FE
ENDCHAR
STARTCHAR J
ENCODING 74
SWIDTH 600 0
DWIDTH 10 0
BBX 10 14 0 0
BITMAP
1FC0
0700
0700
0700
0700
0700
0700
0700
0700
0700
E700
E700
6600
3C00
ENDCHAR
STARTCHAR K
ENCODING 75
SWIDTH 960 0
DWIDTH 16 0
BBX 16 14 0 0
BITMAP
FE3F
380C
3818
3820
38C0
3900
3F80
3BC0
39E0
38F0
3878
387C
383E
FE7F
ENDCHAR
STARTCHAR L
ENCODING 76
SWIDTH 840 0
DWIDTH 14 0
BBX 13 14 0 0
BITMAP
FE00
3800
3800
3800
3800
3800
3800
3800
3800
3808
3808
3818
3838
FFF0
ENDCHAR
STARTCHAR M
ENCODING 77
SWIDTH 1200 0
DWIDTH 20 0
BBX 19 14 0 0
BITMAP
FC07E0
3E0780
3E0780
2E0B80
2F0B80
271380
279380
23A380
23E380
23E380
21C380
21C380
208380
F88FE0
ENDCHAR
STARTCHAR N
ENCODING 78
SWIDTH 900 0
DWIDTH 15 0
BBX 15 14 0 0
BITMAP
F83E
3C08
3E08
2F08
2788
27C8
23C8
21E8
20F8
2078
2038
2038
2018
F808
ENDCHAR
STARTCHAR O
ENCODING 79
SWIDTH 960 0
DWIDTH 16 0
BBX 15 14 1 0
BITMAP
07C0
1C70
3838
781C
701C
F01E
F01E
F01E
F01E
701C
781C
3838
1C70
07C0
ENDCHAR
STARTCHAR P
ENCODING 80
SWIDTH 780 0
DWIDTH 13 0
BBX 12 14 0 0
BITMAP
FF80
39E0
3870
3870
3870
38E0
3BE0
3C00
3800
3800
3800
3800
3800
FE00
ENDCHAR
STARTCHAR Q
ENCODING 81
SWIDTH 960 0
DWIDTH 16 0
BBX 15 18 1 -4
BITMAP
07C0
1C70
3838
783C
781C
F01E
F01E
F01E
F01E
F01E
701C
783C
3838
0C60
0380
03C0
01E0
007C
ENDCHAR
STARTCHAR R
ENCODING 82
SWIDTH 900 0
DWIDTH 15 0
BBX 15 14 0 0
BITMAP
FFE0
38F0
3878
3838
3838
3830
38F0
3FE0
3BE0
39F0
38F0
3878
383C
FE1E
ENDCHAR
STARTCHAR S
ENCODING 83
SWIDTH 720 0
DWIDTH 12 0
BBX 10 14 1 0
BITMAP
1E40
6180
6080
E080
E040
F800
7F00
3F80
07C0
81C0
80C0
C0C0
E180
9F00
ENDCHAR
STARTCHAR T
ENCODING 84
SWIDTH 840 0
DWIDTH 14 0
BBX 13 14 1 0
BITMAP
FFF8
8E38
8E18
8E08
0E00
0E00
0E00
0E00
0E00
0E00
0E00
0E00
0E00
3F80
ENDCHAR
STARTCHAR U
ENCODING 85
SWIDTH 900 0
DWIDTH 15 0
BBX 15 14 0 0
BITMAP
FE3E
3808
3808
3808
3808
3808
3808
3808
3808
3808
3808
3810
1C30
0FC0
ENDCHAR
STARTCHAR V
ENCODING 86
SWIDTH 900 0
DWIDTH 15 0
BBX 15 14 0 0
BITMAP
FE3E
780C
3C08
3C10
1C10
1E10
0E20
0F20
0740
0740
0380
0380
0100
0100
ENDCHAR
STARTCHAR W
ENCODING 87
SWIDTH 1260 0
DWIDTH 21 0
BBX 21 14 0 0
BITMAP
FDFC78
78F830
787820
383820
3C3C20
1C3C40
1E5C40
0E5E80
0E8E80
0F8F00
070700
070600
020600
020200
ENDCHAR
STARTCHAR X
ENCODING 88
SWIDTH 900 0
DWIDTH 15 0
BBX 15 14 0 0
BITMAP
FE3E
7C18
3C10
1E10
1F60
0F80
0780
03C0
05E0
09F0
10F8
3078
603C
F8FE
ENDCHAR
STARTCHAR Y
ENCODING 89
SWIDTH 900 0
DWIDTH 15 0
BBX 15 14 0 0
BITMAP
FE1E
7804
3C08
3E08
1E10
0F20
0F40
0780
0380
0380
0380
0380
0380
1FF0
ENDCHAR
STARTCHAR Z
ENCODING 90
SWIDTH 840 0
DWIDTH 14 0
BBX 13 14 0 0
BITMAP
7FF0
60E0
41E0
43C0
0380
0780
0700
0F00
1E00
1C08
3C08
3818
7838
FFF0
ENDCHAR
STARTCHAR bracketleft
ENCODING 91
SWIDTH 420 0
DWIDTH 7 0
BBX 4 18 2 -4
BITMAP
F0
C0
C0
C0
C0
C0
C0
C0
C0
C0
C0
C0
C0
C0
C0
C0
C0
F0
ENDCHAR
STARTCHAR backslash
ENCODING 92
SWIDTH 360 0
DWIDTH 6 0
BBX 6 14 0 0
BITMAP
C0
40
40
40
20
20
20
30
10
10
18
08
08
0C
ENDCHAR
STARTCHAR bracketright
ENCODING 93
SWIDTH 420 0
DWIDTH 7 0
BBX 4 18 1 -4
BITMAP
F0
30
30
30
30
30
30
30
30
30
30
30
30
30
30
30
30
F0
ENDCHAR
STARTCHAR asciicircum
ENCODING 94
SWIDTH 720 0
DWIDTH 12 0
BBX 9 7 1 7
BITMAP
0800
1C00
1400
3600
6300
4100
C180
ENDCHAR
STARTCHAR underscore
ENCODING 95
SWIDTH 600 0
DWIDTH 10 0
BBX 11 1 0 -5
BITMAP
FFE0
ENDCHAR
STARTCHAR grave
ENCODING 96
SWIDTH 420 0
DWIDTH 7 0
BBX 4 3 0 11
BITMAP
E0
20
10
ENDCHAR
STARTCHAR a
ENCODING 97
SWIDTH 600 0
DWIDTH 10 0
BBX 10 10 1 0
BITMAP
3C00
6700
E700
E700
0F00
3700
6700
E700
FFC0
F300
ENDCHAR
STARTCHAR b
ENCODING 98
SWIDTH 720 0
DWIDTH 12 0
BBX 11 14 0 0
BITMAP
F800
3800
3800
3800
3B80
3DC0
38E0
38E0
38E0
38E0
38E0
38C0
3980
2700
ENDCHAR
STARTCHAR c
ENCODING 99
SWIDTH 540 0
DWIDTH 9 0
BBX 9 10 1 0
BITMAP
1C00
2600
6700
E300
E000
E000
E000
7080
7F00
3C00
ENDCHAR
STARTCHAR d
ENCODING 100
SWIDTH 720 0
DWIDTH 12 0
BBX 10 14 1 0
BITMAP
0780
0380
0380
0380
3B80
7780
6380
E380
E380
E380
E380
6380
7780
3BC0
ENDCHAR
STARTCHAR e
ENCODING 101
SWIDTH 540 0
DWIDTH 9 0
BBX 9 10 1 0
BITMAP
1C00
3600
6700
E300
FF00
E000
E000
7080
7900
3E00
ENDCHAR
STARTCHAR f
ENCODING 102
SWIDTH 420 0
DWIDTH 7 0
BBX 8 14 1 0
BITMAP
1E
37
71
70
FC
70
70
70
70
70
70
70
70
FC
ENDCHAR
STARTCHAR g
ENCODING 103
SWIDTH 600 0
DWIDTH 10 0
BBX 9 15 1 -5
BITMAP
1800
6780
E600
E700
E700
6700
6600
1800
6000
FF00
7F80
C180
C180
E300
3C00
ENDCHAR
STARTCHAR h
ENCODING 104
SWIDTH 720 0
DWIDTH 12 0
BBX 10 14 1 0
BITMAP
F000
7000
7000
7000
7700
7F80
7380
7380
7380
7380
7380
7380
7380
FFC0
ENDCHAR
STARTCHAR i
ENCODING 105
SWIDTH 360 0
DWIDTH 6 0
BBX 5 14 0 0
BITMAP
38
70
38
00
F8
38
38
38
38
38
38
38
70
F8
ENDCHAR
STARTCHAR j
ENCODING 106
SWIDTH 420 0
DWIDTH 7 0
BBX 6 19 -1 -5
BITMAP
1C
1C
1C
00
20
1C
1C
1C
1C
1C
1C
1C
1C
1C
1C
1C
DC
D8
70
ENDCHAR
STARTCHAR k
ENCODING 107
SWIDTH 720 0
DWIDTH 12 0
BBX 11 14 1 0
BITMAP
F000
7000
7000
7000
73C0
7180
7200
7200
7E00
7700
7700
7380
71C0
FBE0
ENDCHAR
STARTCHAR l
ENCODING 108
SWIDTH 360 0
DWIDTH 6 0
BBX 5 14 0 0
BITMAP
F8
38
38
38
38
38
38
38
38
38
38
38
38
F8
ENDCHAR
STARTCHAR m
ENCODING 109
SWIDTH 1020 0
DWIDTH 17 0
BBX 16 10 1 0
BITMAP
F73C
7BCE
738E
738E
738E
738E
738E
738E
738E
FFDF
ENDCHAR
STARTCHAR n
ENCODING 110
SWIDTH 720 0
DWIDTH 12 0
BBX 10 10 1 0
BITMAP
F700
7F80
7380
7380
7380
7380
7380
7380
7380
FFC0
ENDCHAR
STARTCHAR o
ENCODING 111
SWIDTH 600 0
DWIDTH 10 0
BBX 9 10 1 0
BITMAP
1C00
7700
6300
E380
E380
E380
E380
6300
7700
1C00
ENDCHAR
STARTCHAR p
ENCODING 112
SWIDTH 720 0
DWIDTH 12 0
BBX 11 14 0 -4
BITMAP
FB80
3DC0
38E0
38E0
38E0
38E0
38E0
38E0
3DC0
3B80
3800
3800
3800
FC00
ENDCHAR
STARTCHAR q
ENCODING 113
SWIDTH 720 0
DWIDTH 12 0
BBX 10 14 1 -4
BITMAP
1C80
2780
6380
E380
E380
E380
E380
6380
7F80
1380
0380
0380
0380
0FC0
ENDCHAR
STARTCHAR r
ENCODING 114
SWIDTH 540 0
DWIDTH 9 0
BBX 8 10 1 0
BITMAP
F7
77
7B
70
70
70
70
70
70
F8
ENDCHAR
STARTCHAR s
ENCODING 115
SWIDTH 480 0
DWIDTH 8 0
BBX 6 10 1 0
BITMAP
74
CC
E4
F0
F8
7C
3C
8C
CC
B8
ENDCHAR
STARTCHAR t
ENCODING 116
SWIDTH 420 0
DWIDTH 7 0
BBX 7 13 0 0
BITMAP
08
18
38
FC
38
38
38
38
38
38
38
3A
1C
ENDCHAR
STARTCHAR u
ENCODING 117
SWIDTH 720 0
DWIDTH 12 0
BBX 10 10 1 0
BITMAP
F780
7380
7380
7380
7380
7380
7380
7380
7780
3BC0
ENDCHAR
STARTCHAR v
ENCODING 118
SWIDTH 600 0
DWIDTH 10 0
BBX 10 10 0 0
BITMAP
F9C0
7080
7080
3900
3900
1D00
1E00
0C00
0C00
0400
ENDCHAR
STARTCHAR w
ENCODING 119
SWIDTH 900 0
DWIDTH 15 0
BBX 15 10 0 0
BITMAP
FBEE
71C4
71C4
39E8
39E8
1E68
1C70
1C70
0C30
0820
ENDCHAR
STARTCHAR x
ENCODING 120
SWIDTH 600 0
DWIDTH 10 0
BBX 10 10 0 0
BITMAP
F9C0
7880
3900
1E00
1E00
0F00
1700
1780
2780
F7C0
ENDCHAR
STARTCHAR y
ENCODING 121
SWIDTH 600 0
DWIDTH 10 0
BBX 10 15 0 -5
BITMAP
F9C0
7080
3080
3880
1900
1D00
1D00
0E00
0C00
0C00
0400
0400
6800
6800
7000
ENDCHAR
STARTCHAR z
ENCODING 122
SWIDTH 540 0
DWIDTH 9 0
BBX 10 10 0 0
BITMAP
7F80
4700
4F00
0E00
1C00
1C00
3840
7880
7180
FF80
ENDCHAR
STARTCHAR braceleft
ENCODING 123
SWIDTH 480 0
DWIDTH 8 0
BBX 6 18 2 -4
BITMAP
1C
30
60
60
70
30
30
60
C0
C0
60
30
30
70
60
60
30
1C
ENDCHAR
STARTCHAR bar
ENCODING 124
SWIDTH 300 0
DWIDTH 5 0
BBX 1 19 2 -5
BITMAP
80
80
80
80
80
80
80
80
80
80
80
80
80
80
80
80
80
80
80
ENDCHAR
STARTCHAR braceright
ENCODING 125
SWIDTH 480 0
DWIDTH 8 0
BBX 6 18 1 -4
BITMAP
C0
60
30
30
70
60
60
30
18
1C
30
60
60
70
30
30
60
C0
ENDCHAR
STARTCHAR asciitilde
ENCODING 126
SWIDTH 660 0
DWIDTH 11 0
BBX 11 3 0 4
BITMAP
7820
5F40
83C0
ENDCHAR
STARTCHAR C001122
ENCODING 133
SWIDTH 1260 0
DWIDTH 21 0
BBX 17 3 2 0
BITMAP
E1C380
E1C380
E1C380
ENDCHAR
STARTCHAR C001107
ENCODING 145
SWIDTH 420 0
DWIDTH 7 0
BBX 4 7 1 7
BITMAP
30
40
40
80
F0
F0
60
ENDCHAR
STARTCHAR C001110
ENCODING 146
SWIDTH 420 0
DWIDTH 7 0
BBX 4 7 2 7
BITMAP
60
F0
F0
10
10
20
C0
ENDCHAR
STARTCHAR C001113
ENCODING 147
SWIDTH 600 0
DWIDTH 10 0
BBX 9 7 1 7
BITMAP
3180
4200
4200
8400
F780
F780
6300
ENDCHAR
STARTCHAR C001114
ENCODING 148
SWIDTH 600 0
DWIDTH 10 0
BBX 9 7 1 7
BITMAP
E300
F780
F780
3080
2100
4100
8600
ENDCHAR
STARTCHAR C001121
ENCODING 149
SWIDTH 420 0
DWIDTH 7 0
BBX 6 6 1 4
BITMAP
30
78
FC
FC
78
30
ENDCHAR
STARTCHAR C001103
ENCODING 150
SWIDTH 600 0
DWIDTH 10 0
BBX 11 1 0 4
BITMAP
FFE0
ENDCHAR
STARTCHAR C001104
ENCODING 151
SWIDTH 1260 0
DWIDTH 21 0
BBX 21 1 0 4
BITMAP
FFFFF8
ENDCHAR
STARTCHAR exclamdown
ENCODING 161
SWIDTH 720 0
DWIDTH 12 0
BBX 10 13 1 0
BITMAP
3E00
6380
4380
C1C0
F9C0
71C0
71C0
71C0
71C0
71C0
71C0
71C0
7180
ENDCHAR
STARTCHAR cent
ENCODING 162
SWIDTH 780 0
DWIDTH 13 0
BBX 11 13 1 0
BITMAP
3C60
4EE0
CEE0
EEE0
9EE0
6EE0
0EE0
0EE0
0EE0
0EE0
0EE0
0EE0
0380
ENDCHAR
STARTCHAR sterling
ENCODING 163
SWIDTH 900 0
DWIDTH 15 0
BBX 12 13 1 0
BITMAP
2C30
6E70
7F70
9770
8770
9770
D770
7770
0770
0770
0770
0770
01C0
ENDCHAR
STARTCHAR currency
ENCODING 164
SWIDTH 780 0
DWIDTH 13 0
BBX 11 13 1 0
BITMAP
0E00
3F80
41C0
BCE0
F2E0
F2E0
76E0
78E0
70E0
70E0
70E0
70E0
70E0
ENDCHAR
STARTCHAR yen
ENCODING 165
SWIDTH 780 0
DWIDTH 13 0
BBX 11 13 1 0
BITMAP
1980
7FC0
66E0
80E0
9CE0
B2E0
A2E0
7CE0
70E0
70E0
70E0
70E0
70E0
ENDCHAR
STARTCHAR brokenbar
ENCODING 166
SWIDTH 960 0
DWIDTH 16 0
BBX 14 13 1 0
BITMAP
2C0C
7E1C
771C
A71C
871C
E71C
671C
071C
1FDC
377C
273C
271C
1C0C
ENDCHAR
STARTCHAR section
ENCODING 167
SWIDTH 600 0
DWIDTH 10 0
BBX 8 13 1 0
BITMAP
0C
0E
13
17
0F
07
87
C7
67
37
1F
0F
07
ENDCHAR
STARTCHAR diaeresis
ENCODING 168
SWIDTH 720 0
DWIDTH 12 0
BBX 10 13 1 0
BITMAP
3E00
6380
0180
71C0
9DC0
9DC0
9DC0
7DC0
1DC0
1DC0
1DC0
1DC0
0F80
ENDCHAR
STARTCHAR copyright
ENCODING 169
SWIDTH 840 0
DWIDTH 14 0
BBX 11 13 1 0
BITMAP
1F00
63C0
01C0
70E0
98E0
98E0
78E0
38E0
38C0
3FE0
3D20
3920
30E0
ENDCHAR
STARTCHAR ordfeminine
ENCODING 170
SWIDTH 780 0
DWIDTH 13 0
BBX 11 13 1 0
BITMAP
70E0
58C0
9DC0
BF00
BD80
7D80
1DC0
1DC0
1DC0
1DC0
1D80
1D80
1F00
ENDCHAR
STARTCHAR guillemotleft
ENCODING 171
SWIDTH 900 0
DWIDTH 15 0
BBX 13 13 1 0
BITMAP
2E38
7E30
D770
97E0
8760
9760
D770
7770
0770
0770
0770
0760
0FE0
ENDCHAR
STARTCHAR notsign
ENCODING 172
SWIDTH 1020 0
DWIDTH 17 0
BBX 15 13 1 0
BITMAP
1F06
738E
61CE
C1CE
F9CE
71CE
71CE
71CE
71CE
71FE
4BDE
4BCE
3186
ENDCHAR
STARTCHAR hyphen
ENCODING 173
SWIDTH 1020 0
DWIDTH 17 0
BBX 15 19 1 -6
BITMAP
3F06
638E
41CE
C1CE
F9CE
71CE
71CE
71CE
71CE
7DCE
63CE
76FC
1C78
0000
00CE
00EE
00CE
009C
0078
ENDCHAR
STARTCHAR registered
ENCODING 174
SWIDTH 840 0
DWIDTH 14 0
BBX 12 19 1 -6
BITMAP
0F80
19E0
1070
1C70
1C70
1C70
1C70
1C70
7C70
DC70
9C70
F870
7270
0470
0E70
1370
15F0
08F0
0070
ENDCHAR
STARTCHAR macron
ENCODING 175
SWIDTH 840 0
DWIDTH 14 0
BBX 12 19 1 -6
BITMAP
0780
19E0
2070
3E70
1870
1870
1870
1870
7870
D870
9870
9870
7A70
0470
0870
3870
4FF0
3670
0070
ENDCHAR
STARTCHAR degree
ENCODING 176
SWIDTH 720 0
DWIDTH 12 0
BBX 10 19 1 -6
BITMAP
1C40
3F80
6300
7E00
4700
7980
9D80
9D80
7D80
1D80
1B80
1F80
0F00
1B00
7C80
5C80
DB80
6580
0780
ENDCHAR
STARTCHAR plusminus
ENCODING 177
SWIDTH 1020 0
DWIDTH 17 0
BBX 15 13 1 0
BITMAP
6E3C
7F6E
D766
9746
87C6
97C6
D786
3786
0786
0786
0706
0706
0706
ENDCHAR
STARTCHAR twosuperior
ENCODING 178
SWIDTH 1080 0
DWIDTH 18 0
BBX 16 13 1 0
BITMAP
1103
7BC7
E6C7
C2E7
CEE7
D3E7
CBE7
66E7
7CE7
78FF
71E7
71E7
70C3
ENDCHAR
STARTCHAR threesuperior
ENCODING 179
SWIDTH 1020 0
DWIDTH 17 0
BBX 16 13 1 0
BITMAP
3E06
638E
41CE
81CE
F9CE
71CE
71CE
71CE
71CE
7DFE
77F1
37D1
09CE
ENDCHAR
STARTCHAR acute
ENCODING 180
SWIDTH 780 0
DWIDTH 13 0
BBX 11 13 1 0
BITMAP
1F00
61C0
60E0
C0E0
CCE0
D6E0
C6E0
6CE0
6CE0
78E0
70E0
70E0
70E0
ENDCHAR
STARTCHAR mu
ENCODING 181
SWIDTH 780 0
DWIDTH 13 0
BBX 11 13 1 0
BITMAP
3300
7FC0
6CE0
C0E0
DEE0
D6E0
C6E0
ECE0
68E0
78E0
60E0
60E0
60E0
ENDCHAR
STARTCHAR paragraph
ENCODING 182
SWIDTH 780 0
DWIDTH 13 0
BBX 10 13 1 0
BITMAP
3E00
6380
41C0
C1C0
F9C0
71C0
71C0
71C0
7DC0
77C0
73C0
37C0
1D80
ENDCHAR
STARTCHAR periodcentered
ENCODING 183
SWIDTH 840 0
DWIDTH 14 0
BBX 12 13 1 0
BITMAP
70C0
9D70
9D70
BD70
7E70
1E70
1E70
1E70
1E70
1C70
1C70
1C70
1C70
ENDCHAR
STARTCHAR cedilla
ENCODING 184
SWIDTH 720 0
DWIDTH 12 0
BBX 10 13 1 0
BITMAP
3840
77C0
BB80
F800
3F00
3BC0
39C0
39C0
39C0
39C0
39C0
39C0
FF80
ENDCHAR
STARTCHAR onesuperior
ENCODING 185
SWIDTH 900 0
DWIDTH 15 0
BBX 13 13 1 0
BITMAP
7010
9830
8C70
9C70
7C70
1C70
1C70
1C70
1DF0
1EF0
1C88
1C88
1C70
ENDCHAR
STARTCHAR masculine
ENCODING 186
SWIDTH 840 0
DWIDTH 14 0
BBX 12 13 1 0
BITMAP
7070
9C70
9C70
9C70
7C70
1C70
1C70
1C70
1C70
1C70
1C70
1C70
3FE0
ENDCHAR
STARTCHAR guillemotright
ENCODING 187
SWIDTH 840 0
DWIDTH 14 0
BBX 12 21 1 0
BITMAP
0030
0070
0070
0070
0070
0070
0070
0070
7070
9C70
9C70
7C70
1C70
1C70
1C70
1C70
1C70
1C70
1C70
1C70
3FE0
ENDCHAR
STARTCHAR onequarter
ENCODING 188
SWIDTH 780 0
DWIDTH 13 0
BBX 11 13 1 0
BITMAP
70E0
48E0
C8E0
F8E0
E0E0
E4E0
ECE0
EAE0
F2E0
F1E0
E1E0
E0C0
E0C0
ENDCHAR
STARTCHAR onehalf
ENCODING 189
SWIDTH 780 0
DWIDTH 13 0
BBX 11 21 1 0
BITMAP
0060
00E0
00E0
00E0
00E0
00E0
00E0
00E0
70E0
48E0
C8E0
F8E0
E0E0
E4E0
ECE0
EAE0
F2E0
F1E0
E1E0
E0C0
E0C0
ENDCHAR
STARTCHAR threequarters
ENCODING 190
SWIDTH 960 0
DWIDTH 16 0
BBX 14 13 1 0
BITMAP
709C
989C
9D5C
5D5C
7D5C
1D5C
1D3C
1E3C
1E3C
1E3C
1E3C
1C1C
1C1C
ENDCHAR
STARTCHAR questiondown
ENCODING 191
SWIDTH 960 0
DWIDTH 16 0
BBX 13 21 1 0
BITMAP
0018
0038
0038
0038
0038
0038
0038
0038
6138
9938
9AB8
7AB8
3AB8
3AB8
3C78
3C78
3C78
3C78
3C78
3838
3838
ENDCHAR
STARTCHAR Agrave
ENCODING 192
SWIDTH 840 0
DWIDTH 14 0
BBX 12 13 1 0
BITMAP
0F80
18E0
10E0
3070
3E70
1870
1870
1870
1870
7870
8870
9870
7060
ENDCHAR
STARTCHAR Aacute
ENCODING 193
SWIDTH 840 0
DWIDTH 14 0
BBX 12 13 1 0
BITMAP
7030
9870
9C70
9C70
7C70
1C70
1C70
1C70
3C70
5F70
9DF0
58F0
7860
ENDCHAR
STARTCHAR Acircumflex
ENCODING 194
SWIDTH 720 0
DWIDTH 12 0
BBX 10 13 1 0
BITMAP
70C0
E9C0
C9C0
E9C0
F1C0
E1C0
61C0
71C0
E1C0
E1C0
E1C0
E3C0
7F80
ENDCHAR
STARTCHAR Atilde
ENCODING 195
SWIDTH 660 0
DWIDTH 11 0
BBX 10 13 1 0
BITMAP
18C0
7F00
6600
F000
7E00
0700
0700
0700
0700
0F00
1300
1300
0E00
ENDCHAR
STARTCHAR Adiaeresis
ENCODING 196
SWIDTH 780 0
DWIDTH 13 0
BBX 10 20 1 -7
BITMAP
3E00
6380
C3C0
C1C0
F9C0
71C0
71C0
71C0
79C0
75C0
65C0
35C0
19C0
01C0
01C0
01C0
01C0
01C0
01C0
01C0
ENDCHAR
STARTCHAR Aring
ENCODING 197
SWIDTH 720 0
DWIDTH 12 0
BBX 10 13 1 0
BITMAP
1E00
6380
81C0
1FC0
79C0
71C0
71C0
71C0
7DC0
73C0
63C0
33C0
3DC0
ENDCHAR
STARTCHAR AE
ENCODING 198
SWIDTH 840 0
DWIDTH 14 0
BBX 12 20 1 -7
BITMAP
0F80
18E0
10F0
3070
3E70
1C70
1C70
1C70
1C70
FC70
8C70
8870
7070
0070
0070
0070
0070
0070
0070
0070
ENDCHAR
STARTCHAR Ccedilla
ENCODING 199
SWIDTH 720 0
DWIDTH 12 0
BBX 9 13 1 0
BITMAP
3E00
4380
8380
0380
0380
0380
0380
0380
0780
0B80
0980
0B00
0700
ENDCHAR
STARTCHAR Egrave
ENCODING 200
SWIDTH 780 0
DWIDTH 13 0
BBX 11 13 1 0
BITMAP
1EE0
61C0
C1C0
9DC0
E3C0
E3C0
63C0
7DC0
71C0
71C0
71C0
71C0
71C0
ENDCHAR
STARTCHAR Eacute
ENCODING 201
SWIDTH 840 0
DWIDTH 14 0
BBX 12 13 1 0
BITMAP
7030
9C70
9C70
9C70
7C70
1F70
1D70
1CF0
1F70
1C70
1C70
1C70
3FE0
ENDCHAR
STARTCHAR Ecircumflex
ENCODING 202
SWIDTH 780 0
DWIDTH 13 0
BBX 12 13 1 0
BITMAP
3E30
67A0
83E0
1DC0
73C0
71C0
71C0
71C0
79C0
75C0
65C0
35C0
39C0
ENDCHAR
STARTCHAR Ediaeresis
ENCODING 203
SWIDTH 900 0
DWIDTH 15 0
BBX 13 13 1 0
BITMAP
7070
BC88
9C88
5CF0
7DF0
1D70
1E70
1E70
1C70
1C70
1C70
1C70
1C70
ENDCHAR
STARTCHAR Igrave
ENCODING 204
SWIDTH 1080 0
DWIDTH 18 0
BBX 16 13 1 0
BITMAP
70B3
98AF
9CCE
9DBC
7D5C
1D5C
1D5C
1E7C
1E3C
1E3C
1E3C
1C1C
1C1C
ENDCHAR
STARTCHAR Iacute
ENCODING 205
SWIDTH 720 0
DWIDTH 12 0
BBX 10 13 1 0
BITMAP
3E00
6300
8380
39C0
75C0
65C0
79C0
71C0
71C0
71C0
71C0
3180
1E00
ENDCHAR
STARTCHAR Icircumflex
ENCODING 206
SWIDTH 720 0
DWIDTH 12 0
BBX 9 13 1 0
BITMAP
3D80
C780
8700
7F80
0380
7380
CB80
CB80
CB80
F380
C380
E300
3C00
ENDCHAR
STARTCHAR Idiaeresis
ENCODING 207
SWIDTH 840 0
DWIDTH 14 0
BBX 10 13 3 0
BITMAP
03C0
07C0
05C0
E5C0
89C0
89C0
99C0
71C0
01C0
01C0
01C0
01C0
01C0
ENDCHAR
STARTCHAR ETH
ENCODING 208
SWIDTH 660 0
DWIDTH 11 0
BBX 9 12 1 0
BITMAP
6180
9180
9700
7C00
0000
0000
0000
6180
9180
9300
FE00
3C00
ENDCHAR
STARTCHAR Ntilde
ENCODING 209
SWIDTH 0 0
DWIDTH 0 0
BBX 11 5 -9 15
BITMAP
7060
8860
88C0
71C0
1F00
ENDCHAR
STARTCHAR Ograve
ENCODING 210
SWIDTH 540 0
DWIDTH 9 0
BBX 7 13 1 0
BITMAP
78
9C
0E
0E
0E
0E
0E
0E
0E
0E
0E
0E
0E
ENDCHAR
STARTCHAR Oacute
ENCODING 211
SWIDTH 540 0
DWIDTH 9 0
BBX 15 19 -7 0
BITMAP
6000
9000
9000
6000
0000
0000
0078
009C
000E
000E
000E
000E
000E
000E
000E
000E
000E
000E
000E
ENDCHAR
STARTCHAR Ocircumflex
ENCODING 212
SWIDTH 0 0
DWIDTH 0 0
BBX 11 6 -12 14
BITMAP
1F00
3F80
60C0
FE40
01E0
0020
ENDCHAR
STARTCHAR Otilde
ENCODING 213
SWIDTH 0 0
DWIDTH 0 0
BBX 11 7 -12 14
BITMAP
00C0
1EC0
3FC0
61C0
FE40
01C0
0020
ENDCHAR
STARTCHAR Odiaeresis
ENCODING 214
SWIDTH 0 0
DWIDTH 0 0
BBX 11 8 -12 14
BITMAP
00C0
0120
1F20
3FE0
61C0
FE40
01E0
0020
ENDCHAR
STARTCHAR multiply
ENCODING 215
SWIDTH 0 0
DWIDTH 0 0
BBX 11 8 -11 14
BITMAP
06C0
06C0
3FC0
71C0
40C0
FE40
01C0
0020
ENDCHAR
STARTCHAR Ooblique
ENCODING 216
SWIDTH 0 0
DWIDTH 0 0
BBX 6 6 -7 -7
BITMAP
78
9C
8C
7C
1C
1C
ENDCHAR
STARTCHAR Ugrave
ENCODING 217
SWIDTH 0 0
DWIDTH 0 0
BBX 8 6 -9 -7
BITMAP
67
97
77
37
37
3E
ENDCHAR
STARTCHAR Uacute
ENCODING 218
SWIDTH 0 0
DWIDTH 0 0
BBX 4 4 -5 -5
BITMAP
60
F0
F0
60
ENDCHAR
STARTCHAR Ucircumflex
ENCODING 219
SWIDTH 420 0
DWIDTH 7 0
BBX 0 0 0 0
BITMAP
ENDCHAR
STARTCHAR Udiaeresis
ENCODING 220
SWIDTH 420 0
DWIDTH 7 0
BBX 6 3 1 -3
BITMAP
FC
FC
84
ENDCHAR
STARTCHAR ssharp
ENCODING 223
SWIDTH 840 0
DWIDTH 14 0
BBX 13 18 0 -1
BITMAP
0300
0300
FFC0
3FF0
3B30
3B38
3B38
3B30
3B60
3FC0
3B70
3B38
3B38
3B38
3B38
3B70
FFC0
0300
ENDCHAR
STARTCHAR agrave
ENCODING 224
SWIDTH 360 0
DWIDTH 6 0
BBX 4 13 1 0
BITMAP
60
E0
E0
E0
E0
E0
E0
E0
E0
E0
90
90
60
ENDCHAR
STARTCHAR aacute
ENCODING 225
SWIDTH 660 0
DWIDTH 11 0
BBX 10 13 1 0
BITMAP
6080
E180
E380
E380
E380
E380
E380
E380
E380
E380
9240
9240
6180
ENDCHAR
STARTCHAR acircumflex
ENCODING 226
SWIDTH 480 0
DWIDTH 8 0
BBX 9 22 -1 0
BITMAP
3880
7F80
C700
7000
3800
0C00
0E00
0E00
0E00
0E00
0E00
0E00
0E00
0E00
0E00
0E00
0E00
0E00
0E00
0900
0900
0600
ENDCHAR
STARTCHAR atilde
ENCODING 227
SWIDTH 420 0
DWIDTH 7 0
BBX 9 22 -2 0
BITMAP
3C00
CE00
AF00
9700
D700
7700
0700
0700
0700
0700
0700
0700
0700
0700
0700
0700
0700
0700
0500
0880
0880
0700
ENDCHAR
STARTCHAR adiaeresis
ENCODING 228
SWIDTH 540 0
DWIDTH 9 0
BBX 10 22 -1 0
BITMAP
C400
6F00
6F00
6F00
6F00
6F00
6F00
3700
0700
0700
0700
0700
0700
0700
0700
0700
0700
0700
0780
0440
04C0
0380
ENDCHAR
STARTCHAR aring
ENCODING 229
SWIDTH 600 0
DWIDTH 10 0
BBX 7 19 1 -6
BITMAP
78
9C
0E
0E
0E
0E
0E
0E
0E
0E
0E
0E
0E
0E
0E
0E
0E
0E
0E
ENDCHAR
STARTCHAR ae
ENCODING 230
SWIDTH 660 0
DWIDTH 11 0
BBX 9 19 1 -6
BITMAP
2600
6F00
DB80
9380
8380
9380
D380
7380
0380
0380
0380
0380
0380
0380
0380
0380
0380
0380
0380
ENDCHAR
STARTCHAR ccedilla
ENCODING 231
SWIDTH 0 0
DWIDTH 0 0
BBX 9 7 -9 14
BITMAP
0380
0700
7E00
E700
F700
7F00
2F00
ENDCHAR
STARTCHAR egrave
ENCODING 232
SWIDTH 0 0
DWIDTH 0 0
BBX 3 5 -5 24
BITMAP
E0
E0
60
40
40
ENDCHAR
STARTCHAR eacute
ENCODING 233
SWIDTH 0 0
DWIDTH 0 0
BBX 7 6 -7 23
BITMAP
66
B6
94
7C
78
60
ENDCHAR
STARTCHAR ecircumflex
ENCODING 234
SWIDTH 0 0
DWIDTH 0 0
BBX 10 7 -8 25
BITMAP
00C0
64C0
7E80
DA80
8380
5B00
7A00
ENDCHAR
STARTCHAR ediaeresis
ENCODING 235
SWIDTH 0 0
DWIDTH 0 0
BBX 4 6 -6 25
BITMAP
60
60
F0
F0
60
60
ENDCHAR
STARTCHAR igrave
ENCODING 236
SWIDTH 0 0
DWIDTH 0 0
BBX 5 6 -5 23
BITMAP
08
08
F0
80
90
70
ENDCHAR
STARTCHAR iacute
ENCODING 237
SWIDTH 0 0
DWIDTH 0 0
BBX 5 5 -7 14
BITMAP
70
88
88
88
70
ENDCHAR
STARTCHAR icircumflex
ENCODING 238
SWIDTH 0 0
DWIDTH 0 0
BBX 7 7 -5 15
BITMAP
0E
30
30
38
60
C0
78
ENDCHAR
STARTCHAR idiaeresis
ENCODING 239
SWIDTH 660 0
DWIDTH 11 0
BBX 10 10 1 1
BITMAP
1E00
2100
4080
8E40
9F40
9F40
4E40
4080
2100
1E00
ENDCHAR
STARTCHAR eth
ENCODING 240
SWIDTH 720 0
DWIDTH 12 0
BBX 10 9 1 0
BITMAP
1E00
7380
6180
C0C0
C0C0
C0C0
61C0
7380
1E00
ENDCHAR
STARTCHAR ntilde
ENCODING 241
SWIDTH 660 0
DWIDTH 11 0
BBX 9 9 1 0
BITMAP
1C00
3F00
6300
D880
DC80
DC80
6480
3900
0300
ENDCHAR
STARTCHAR ograve
ENCODING 242
SWIDTH 1020 0
DWIDTH 17 0
BBX 15 15 1 0
BITMAP
4000
E000
6000
6000
6000
6000
6798
67FC
6C66
6B26
6BA6
67A6
636C
7008
3FF0
ENDCHAR
STARTCHAR oacute
ENCODING 243
SWIDTH 960 0
DWIDTH 16 0
BBX 14 9 1 0
BITMAP
3C70
7FF8
439C
808C
B08C
B88C
B998
7910
7330
ENDCHAR
STARTCHAR ocircumflex
ENCODING 244
SWIDTH 960 0
DWIDTH 16 0
BBX 14 15 1 0
BITMAP
000C
000C
000C
0018
00F0
07C0
1C00
70E0
71F0
E370
E320
E180
70E0
7FFC
3C0C
ENDCHAR
STARTCHAR otilde
ENCODING 245
SWIDTH 960 0
DWIDTH 16 0
BBX 14 14 1 0
BITMAP
000C
038C
04CC
04D8
03E0
0F00
3C60
71F0
E1B8
C190
C180
E0C0
71E0
1E38
ENDCHAR
STARTCHAR odiaeresis
ENCODING 246
SWIDTH 660 0
DWIDTH 11 0
BBX 10 15 0 0
BITMAP
8000
C000
E000
6000
2000
2000
3E00
6380
01C0
10C0
30C0
70C0
6180
3380
1E00
ENDCHAR
STARTCHAR division
ENCODING 247
SWIDTH 1020 0
DWIDTH 17 0
BBX 14 15 1 0
BITMAP
0060
0070
0030
0018
0018
0008
38CC
7DEC
7FFC
E33C
C038
CC38
4E28
7E70
3C60
ENDCHAR
STARTCHAR oslash
ENCODING 248
SWIDTH 960 0
DWIDTH 16 0
BBX 14 15 1 0
BITMAP
0008
000C
000C
000C
000C
0018
3E18
7FF0
F0E0
E000
C060
DC70
FE70
73B0
31E0
ENDCHAR
STARTCHAR ugrave
ENCODING 249
SWIDTH 720 0
DWIDTH 12 0
BBX 10 15 1 0
BITMAP
0040
0040
00C0
3FC0
7F80
6000
3F80
3F80
7000
C300
C780
C780
E180
6300
3E00
ENDCHAR
STARTCHAR uacute
ENCODING 250
SWIDTH 960 0
DWIDTH 16 0
BBX 14 13 1 0
BITMAP
01CC
03CC
02CC
76CC
C4CC
C4CC
4CCC
78CC
00CC
00CC
00CC
00CC
00CC
ENDCHAR
STARTCHAR ucircumflex
ENCODING 251
SWIDTH 1560 0
DWIDTH 26 0
BBX 24 12 1 0
BITMAP
3E0000
610000
400000
C00000
800000
802221
802641
806EA3
805BB6
C0C91C
618000
1E0000
ENDCHAR
STARTCHAR udiaeresis
ENCODING 252
SWIDTH 0 0
DWIDTH 0 0
BBX 6 7 -7 -14
BITMAP
78
98
8C
4C
7C
1C
1C
ENDCHAR
STARTCHAR yacute
ENCODING 253
SWIDTH 0 0
DWIDTH 0 0
BBX 8 7 -9 -14
BITMAP
60
97
97
77
17
17
1E
ENDCHAR
STARTCHAR thorn
ENCODING 254
SWIDTH 0 0
DWIDTH 0 0
BBX 4 4 -5 -12
BITMAP
60
F0
F0
60
ENDCHAR
ENDFONT
